<svg xmlns="http://www.w3.org/2000/svg" width="1em" height="1em" viewBox="0 0 32 32"><linearGradient id="a" x1="-1053.109" x2="-1052.911" y1="762.68" y2="762.482" gradientTransform="matrix(71.0175 0 0 -71.1787 74792.477 54290.04)" gradientUnits="userSpaceOnUse"><stop offset="0" stop-color="#387eb8"/><stop offset="1" stop-color="#366994"/></linearGradient><path fill="url(#a)" d="M15 .6C7.5.6 8 3.9 8 3.9v3.4h7.2v1.1h-10S.4 7.8.4 15.5s4.3 7.3 4.3 7.3H7v-3.6s-.1-4.3 4.1-4.3h7.2s4 .1 4-3.9V4.5S23 .6 15 .6zm-3.9 2.3c.7 0 1.3.5 1.3 1.3 0 .7-.5 1.3-1.3 1.3-.7 0-1.3-.5-1.3-1.3 0-.7.6-1.3 1.3-1.3z"/><linearGradient id="b" x1="-1053.341" x2="-1053.114" y1="762.889" y2="762.691" gradientTransform="matrix(71.0175 0 0 -71.1787 74817.227 54314.133)" gradientUnits="userSpaceOnUse"><stop offset="0" stop-color="#ffe052"/><stop offset="1" stop-color="#ffc331"/></linearGradient><path fill="url(#b)" d="M15.3 30.1c7.5 0 7.1-3.3 7.1-3.3v-3.4h-7.2v-1.1h10.1s4.8.5 4.8-7.1S25.8 8 25.8 8h-2.5v3.5s.1 4.3-4.1 4.3H12s-4-.1-4 3.9v6.5s-.7 3.9 7.3 3.9zm3.9-2.3c-.7 0-1.3-.5-1.3-1.3s.5-1.3 1.3-1.3c.7 0 1.3.5 1.3 1.3s-.6 1.3-1.3 1.3z"/><path fill="#FFF" fill-rule="evenodd" d="M21.2 30.3h-8.4c-.8 0-1.9-.7-1.9-1.9v-9.9c0-.1 0-.4.1-.7.1-.3.3-.5.4-.6.1-.1.3-.3.6-.4.3-.1.6-.1.7-.1 4.1-.1 7.3-.1 13.7 0 .1 0 .4 0 .7.1.1 0 .7.3 1 1 .1.3.1.6.1.7v2.2L23.1 30l-1.9.3z" clip-rule="evenodd" opacity=".85"/><path fill-rule="evenodd" d="m29.4 20.6 2.1 1.9c.3.2.3.7 0 .9l-1 1.1-3-2.8 1-1.1c.2-.2.7-.3.9 0zm-8.5 3.8 2.2-3.8c0-.1.1-.1.2-.1 0 0 .1 0 .1.1l.8 2-1.9 2.2c-.3.3-.5.7-.5 1.1l-.2.9-.1.3h-7.4c-.1 0-.1 0-.1-.1v-.8c0-.1.1-.2.2-.2h.9l.9-2.3c0-.1.1-.1.2-.1l.1.1.5 1.6H18l1.2-3.2c0-.1.1-.1.2-.1 0 0 .1 0 .1.1-.1 0 1.4 2.3 1.4 2.3zm-10 4v-9.9c0-.1 0-.4.1-.7.1-.3.3-.5.4-.6.1-.1.3-.3.6-.4.3-.1.6-.1.7-.1 4.1-.1 7.3-.1 13.7 0 .1 0 .4 0 .7.1.1 0 .7.3 1 1 .1.3.1.6.1.7v.9H27v-.9c0-.3-.2-.5-.7-.5H12.4c-.1 0-.2.1-.3.3v10.3c0 .1.4.3.5.3.7.2 8.4-.2 8.5 0v1.3h-8.4c-.7.1-1.8-.6-1.8-1.8zm5.1-8.9c.7 0 1.3.6 1.3 1.3 0 .7-.6 1.3-1.3 1.3-.4 0-.7-.1-.9-.4-.5-.5-.5-1.4 0-1.9.2-.1.5-.3.9-.3zm10.6 9.4c-.8.3-1.4.4-2.2.7-1.6.4-1.6.8-1.4-.8l.5-2.7 3.4-3.8 3 2.8-3.3 3.8zm-2.5-2.3 2 1.8-1.5.6c-1.2.4-1.2.7-.9-.5l.4-1.9z" clip-rule="evenodd"/></svg>