<svg xmlns="http://www.w3.org/2000/svg" width="1em" height="1em" viewBox="0 0 32 32"><linearGradient id="a" x1="-1053.1093" x2="-1052.9111" y1="762.6799" y2="762.4817" gradientTransform="matrix(71.0175 0 0 -71.1787 74792.4766 54290.0391)" gradientUnits="userSpaceOnUse"><stop offset="0" stop-color="#387eb8"/><stop offset="1" stop-color="#366994"/></linearGradient><path fill="url(#a)" d="M15 .6C7.5.6 8 3.9 8 3.9v3.4h7.2v1.1h-10S.4 7.8.4 15.5s4.3 7.3 4.3 7.3H7v-3.6s-.1-4.3 4.1-4.3h7.2s4 .1 4-3.9V4.5S23 .6 15 .6zm-3.9 2.3c.7 0 1.3.5 1.3 1.3 0 .7-.5 1.3-1.3 1.3-.7 0-1.3-.5-1.3-1.3 0-.7.6-1.3 1.3-1.3z"/><linearGradient id="b" x1="-1053.3409" x2="-1053.1144" y1="762.8889" y2="762.6907" gradientTransform="matrix(71.0175 0 0 -71.1787 74817.2266 54314.1328)" gradientUnits="userSpaceOnUse"><stop offset="0" stop-color="#ffe052"/><stop offset="1" stop-color="#ffc331"/></linearGradient><path fill="url(#b)" d="M15.3 30.1c7.5 0 7.1-3.3 7.1-3.3v-3.4h-7.2v-1.1h10.1s4.8.5 4.8-7.1S25.8 8 25.8 8h-2.5v3.5s.1 4.3-4.1 4.3H12s-4-.1-4 3.9v6.5s-.7 3.9 7.3 3.9zm3.9-2.3c-.7 0-1.3-.5-1.3-1.3s.5-1.3 1.3-1.3c.7 0 1.3.5 1.3 1.3s-.6 1.3-1.3 1.3z"/><path fill="#FFF" d="m29.2 20.4-5.7 9.7h-7.3c-1.6 0-2.9-1.3-2.9-2.9V17.1c0-1.6 1.3-2.9 2.9-2.9h10.2c1.6 0 2.9 1.3 2.9 2.9v3.3" opacity=".79"/><path fill="#212121" d="M13.3 17.1c0-1.6 1.3-2.9 2.9-2.9h10.2c1.6 0 2.9 1.3 2.9 2.9v2.4c-.4 0-.9 0-1.3.1v-1H14.7v8.6c0 .9.7 1.5 1.5 1.5h7.1l-.4.7c-.1.2-.2.4-.2.7h-6.4c-1.6 0-2.9-1.3-2.9-2.9V17.1zm2.9-1.6c-.9 0-1.5.7-1.5 1.5v.2H28V17c0-.9-.7-1.5-1.5-1.5H16.2z"/><path fill="#212121" d="M29.1 20.4h-.6c-1 .1-1.9.6-2.4 1.5-.6 1.1-.5 2.4.2 3.3l-2.7 4.6c0 .1-.1.1-.1.2-.2.6 0 1.2.6 1.6.6.4 1.4.1 1.8-.5l2.7-4.6c1.2.1 2.3-.5 3-1.5.7-1.2.5-2.6-.3-3.6L29.7 24c-.3.5-.9.7-1.4.4s-.7-.9-.4-1.4l1.5-2.5c-.1-.1-.2-.1-.3-.1zm-4.1 4c-.2-.6-.2-1.2 0-1.9l-2-2c-.2-.2-.5-.2-.6 0-.2.2-.2.5 0 .6l2.3 2.3-2.3 2.3c-.2.2-.2.5 0 .6.2.2.5.2.6 0l2-1.9zm-4.7-3.2c.2-.2.2-.5 0-.6-.2-.2-.5-.2-.6 0L17 23.2c-.1.1-.1.2-.1.3 0 .1 0 .2.1.3l2.7 2.7c.2.2.5.2.6 0 .2-.2.2-.5 0-.6L18 23.6l2.3-2.4z"/></svg>