<?xml version="1.0" encoding="UTF-8"?>
<svg id="Calque_1" data-name="Calque 1" xmlns="http://www.w3.org/2000/svg" viewBox="0 0 82.06 112.18">
  <defs>
    <style>
      .cls-1 {
        fill: #fff;
      }

      .cls-2 {
        fill: #314696;
      }
    </style>
  </defs>
  <path class="cls-2" d="m.68,79.03c3.77,18.98,20.72,32.93,40.27,33.15,2.77-.33,5.6-.42,8.3-1.04,14.42-3.28,24.58-11.78,30.07-25.53,3.28-8.22,3.74-16.63.77-25.13-2.26-6.42-5.18-12.53-8.5-18.44-7.99-14.17-17.36-27.39-27.35-40.21-1.95-2.52-4.58-2.43-6.6.16-6.84,8.7-13.29,17.67-19.31,26.97-5.6,8.66-10.81,17.56-14.79,27.14-3.08,7.39-4.45,14.92-2.84,22.92Zm40.34-19.28c8.19.05,14.92,6.8,14.9,14.95-.04,8.22-6.86,14.95-15.06,14.88-8.15-.05-14.84-6.89-14.79-15.06.07-8.08,6.89-14.83,14.95-14.77Z"/>
  <path class="cls-1" d="m39.25,6.31c.17.84.91,1.45,1.78,1.46.12-.01.25-.02.37-.05.64-.14,1.08-.52,1.33-1.13.14-.36.16-.73.03-1.11-.1-.28-.23-.55-.37-.81-.35-.62-.77-1.21-1.21-1.77-.09-.11-.2-.11-.29,0-.3.38-.59.78-.85,1.19-.25.38-.48.77-.65,1.2-.14.33-.2.66-.13,1.01Zm1.78-.85c.36,0,.66.3.66.66,0,.36-.3.66-.66.66-.36,0-.65-.3-.65-.66,0-.36.3-.65.66-.65Z"/>
  <path class="cls-1" d="m35.63,18.5c.17.84.91,1.45,1.78,1.46.12-.01.25-.02.37-.05.64-.14,1.08-.52,1.33-1.13.14-.36.16-.73.03-1.11-.1-.28-.23-.55-.37-.81-.35-.62-.77-1.21-1.21-1.77-.09-.11-.2-.11-.29,0-.3.38-.59.78-.85,1.19-.25.38-.48.77-.65,1.2-.14.33-.2.66-.13,1.01Zm1.78-.85c.36,0,.66.3.66.66,0,.36-.3.66-.66.66-.36,0-.65-.3-.65-.66,0-.36.3-.65.66-.65Z"/>
  <path class="cls-1" d="m41.05,22.29c.1.49.53.85,1.04.85.07,0,.14-.01.21-.03.37-.08.63-.3.77-.66.08-.21.1-.43.02-.65-.06-.17-.13-.32-.22-.47-.21-.36-.45-.71-.7-1.04-.05-.06-.12-.06-.17,0-.18.22-.34.46-.5.69-.14.22-.28.45-.38.7-.08.19-.11.38-.07.59Zm1.04-.5c.21,0,.38.18.38.39,0,.21-.18.39-.39.38-.21,0-.38-.18-.38-.39,0-.21.18-.38.39-.38Z"/>
  <path class="cls-1" d="m39.25,30.05c.17.84.91,1.45,1.78,1.46.12-.01.25-.02.37-.05.64-.14,1.08-.52,1.33-1.13.14-.36.16-.73.03-1.11-.1-.28-.23-.55-.37-.81-.35-.62-.77-1.21-1.21-1.77-.09-.11-.2-.11-.29,0-.3.38-.59.78-.85,1.19-.25.38-.48.77-.65,1.2-.14.33-.2.66-.13,1.01Zm1.78-.85c.36,0,.66.3.66.66,0,.36-.3.66-.66.66-.36,0-.65-.3-.65-.66,0-.36.3-.65.66-.65Z"/>
  <path class="cls-1" d="m36.37,40.89c.1.49.53.85,1.04.85.07,0,.14-.01.21-.03.37-.08.63-.3.77-.66.08-.21.1-.43.02-.65-.06-.17-.13-.32-.22-.47-.21-.36-.45-.71-.7-1.04-.05-.06-.12-.06-.17,0-.18.22-.34.46-.5.69-.14.22-.28.45-.38.7-.08.19-.11.38-.07.59Zm1.04-.5c.21,0,.38.18.38.39,0,.21-.18.39-.39.38-.21,0-.38-.18-.38-.39,0-.21.18-.38.39-.38Z"/>
  <path class="cls-1" d="m39.25,59.28c.17.84.91,1.45,1.78,1.46.12-.01.25-.02.37-.05.64-.14,1.08-.52,1.33-1.13.14-.36.16-.73.03-1.11-.1-.28-.23-.55-.37-.81-.35-.62-.77-1.21-1.21-1.77-.09-.11-.2-.11-.29,0-.3.38-.59.78-.85,1.19-.25.38-.48.77-.65,1.2-.14.33-.2.66-.13,1.01Zm1.78-.85c.36,0,.66.3.66.66,0,.36-.3.66-.66.66-.36,0-.65-.3-.65-.66,0-.36.3-.65.66-.65Z"/>
  <path class="cls-1" d="m41.22,48.69c.17.84.91,1.45,1.78,1.46.12-.01.25-.02.37-.05.64-.14,1.08-.52,1.33-1.13.14-.36.16-.73.03-1.11-.1-.28-.23-.55-.37-.81-.35-.62-.77-1.21-1.21-1.77-.09-.11-.2-.11-.29,0-.3.38-.59.78-.85,1.19-.25.38-.48.77-.65,1.2-.14.33-.2.66-.13,1.01Zm1.78-.85c.36,0,.66.3.66.66,0,.36-.3.66-.66.66-.36,0-.65-.3-.65-.66,0-.36.3-.65.66-.65Z"/>
  <path class="cls-1" d="m42.44,37.91c.07.33.36.58.71.58.05,0,.1,0,.15-.02.25-.06.43-.21.53-.45.06-.14.07-.29.01-.44-.04-.11-.09-.22-.15-.32-.14-.25-.3-.48-.48-.71-.03-.04-.08-.04-.12,0-.12.15-.23.31-.34.47-.1.15-.19.31-.26.48-.05.13-.08.26-.05.4Zm.71-.34c.14,0,.26.12.26.26,0,.14-.12.26-.26.26-.14,0-.26-.12-.26-.26,0-.14.12-.26.26-.26Z"/>
  <path class="cls-1" d="m37.76,51.96c.07.33.36.58.71.58.05,0,.1,0,.15-.02.25-.06.43-.21.53-.45.06-.14.07-.29.01-.44-.04-.11-.09-.22-.15-.32-.14-.25-.3-.48-.48-.71-.03-.04-.08-.04-.12,0-.12.15-.23.31-.34.47-.1.15-.19.31-.26.48-.05.13-.08.26-.05.4Zm.71-.34c.14,0,.26.12.26.26,0,.14-.12.26-.26.26-.14,0-.26-.12-.26-.26,0-.14.12-.26.26-.26Z"/>
  <path class="cls-1" d="m40.28,11.96c.07.33.36.58.71.58.05,0,.1,0,.15-.02.25-.06.43-.21.53-.45.06-.14.07-.29.01-.44-.04-.11-.09-.22-.15-.32-.14-.25-.3-.48-.48-.71-.03-.04-.08-.04-.12,0-.12.15-.23.31-.34.47-.1.15-.19.31-.26.48-.05.13-.08.26-.05.4Zm.71-.34c.14,0,.26.12.26.26,0,.14-.12.26-.26.26-.14,0-.26-.12-.26-.26,0-.14.12-.26.26-.26Z"/>
</svg>